<?xml version="1.0" ?><!DOCTYPE svg  PUBLIC '-//W3C//DTD SVG 1.1//EN'  'http://www.w3.org/Graphics/SVG/1.1/DTD/svg11.dtd'><svg enable-background="new 0 0 512 512" height="512px" id="Layer_1" version="1.1" viewBox="0 0 512 512" width="512px" xml:space="preserve" xmlns="http://www.w3.org/2000/svg" xmlns:xlink="http://www.w3.org/1999/xlink"><path d="M512,68.438c0-13.219-10.75-23.969-23.938-23.969h-79.797V13.906c0-5.031-4.094-9.109-9.125-9.109  c-5.016,0-9.109,4.078-9.109,9.109v30.562H265.109V13.906c0-5.031-4.094-9.109-9.109-9.109s-9.109,4.078-9.109,9.109v30.562H121.969  V9.109c0-5.016-4.094-9.109-9.109-9.109c-5.031,0-9.125,4.094-9.125,9.109v35.359H23.938C10.75,44.469,0,55.219,0,68.438v419.594  C0,501.25,10.75,512,23.938,512h464.125C501.25,512,512,501.25,512,488.031V68.438z M493.781,493.75H18.219V166.516h475.562V493.75z   M493.781,148.312H18.219V62.719h85.516v30.562c0,5.031,4.094,9.109,9.125,9.109c5.016,0,9.109-4.078,9.109-9.109V62.719h124.922  v35.359c0,5.031,4.094,9.125,9.109,9.125s9.109-4.094,9.109-9.125V62.719h124.922v35.359c0,5.031,4.094,9.125,9.109,9.125  c5.031,0,9.125-4.094,9.125-9.125V62.719h85.516V148.312z" id="calendar_1_2_"/></svg>