<?xml version="1.0" ?><!DOCTYPE svg  PUBLIC '-//W3C//DTD SVG 1.1//EN'  'http://www.w3.org/Graphics/SVG/1.1/DTD/svg11.dtd'><svg enable-background="new 0 0 48 48" height="48px" id="Layer_1" version="1.1" viewBox="0 0 48 48" width="48px" xml:space="preserve" xmlns="http://www.w3.org/2000/svg" xmlns:xlink="http://www.w3.org/1999/xlink"><g><g><path d="M6.923,19.076c2.715,0,4.924,2.209,4.924,4.924s-2.209,4.924-4.924,4.924C4.208,28.924,2,26.715,2,24    S4.208,19.076,6.923,19.076 M6.923,17.076C3.099,17.076,0,20.178,0,24s3.099,6.924,6.923,6.924c3.823,0,6.924-3.102,6.924-6.924    S10.746,17.076,6.923,17.076L6.923,17.076z"/></g><g><path d="M24,19.076c2.715,0,4.923,2.209,4.923,4.924S26.715,28.924,24,28.924c-2.714,0-4.923-2.209-4.923-4.924    S21.286,19.076,24,19.076 M24,17.076c-3.823,0-6.923,3.102-6.923,6.924s3.1,6.924,6.923,6.924s6.923-3.102,6.923-6.924    S27.823,17.076,24,17.076L24,17.076z"/></g><g><path d="M41.077,19.076C43.792,19.076,46,21.285,46,24s-2.208,4.924-4.923,4.924c-2.714,0-4.922-2.209-4.922-4.924    S38.363,19.076,41.077,19.076 M41.077,17.076c-3.823,0-6.922,3.102-6.922,6.924s3.099,6.924,6.922,6.924S48,27.822,48,24    S44.9,17.076,41.077,17.076L41.077,17.076z"/></g></g></svg>