<?xml version="1.0" ?><!DOCTYPE svg  PUBLIC '-//W3C//DTD SVG 1.1//EN'  'http://www.w3.org/Graphics/SVG/1.1/DTD/svg11.dtd'><svg enable-background="new 0 0 128 128" height="128px" id="Layer_1" version="1.1" viewBox="0 0 128 128" width="128px" xml:space="preserve" xmlns="http://www.w3.org/2000/svg" xmlns:xlink="http://www.w3.org/1999/xlink"><g><path d="M124,28H4c-2.209,0-4-1.791-4-4s1.791-4,4-4h120c2.209,0,4,1.791,4,4S126.209,28,124,28z"/></g><g><path d="M124,68H4c-2.209,0-4-1.791-4-4s1.791-4,4-4h120c2.209,0,4,1.791,4,4S126.209,68,124,68z"/></g><g><path d="M124,108H4c-2.209,0-4-1.791-4-4s1.791-4,4-4h120c2.209,0,4,1.791,4,4S126.209,108,124,108z"/></g></svg>