<?xml version="1.0" ?><!DOCTYPE svg  PUBLIC '-//W3C//DTD SVG 1.1//EN'  'http://www.w3.org/Graphics/SVG/1.1/DTD/svg11.dtd'><svg enable-background="new 0 0 100 100" height="100px" id="Layer_1" version="1.1" viewBox="0 0 100 100" width="100px" xml:space="preserve" xmlns="http://www.w3.org/2000/svg" xmlns:xlink="http://www.w3.org/1999/xlink"><g><g><path d="M50,41c-3.9,0-7-3.1-7-7s3.1-7,7-7s7,3.1,7,7S53.9,41,50,41z M50,29c-2.8,0-5,2.2-5,5s2.2,5,5,5s5-2.2,5-5S52.8,29,50,29z    "/></g><g><path d="M50,57c-3.9,0-7-3.1-7-7c0-3.9,3.1-7,7-7s7,3.1,7,7C57,53.9,53.9,57,50,57z M50,45c-2.8,0-5,2.2-5,5s2.2,5,5,5s5-2.2,5-5    S52.8,45,50,45z"/></g><g><path d="M50,73c-3.9,0-7-3.1-7-7s3.1-7,7-7s7,3.1,7,7S53.9,73,50,73z M50,61c-2.8,0-5,2.2-5,5s2.2,5,5,5s5-2.2,5-5S52.8,61,50,61z    "/></g></g></svg>