<?xml version="1.0" ?><svg height="100" id="svg2" version="1.1" width="100" xmlns="http://www.w3.org/2000/svg" xmlns:cc="http://creativecommons.org/ns#" xmlns:dc="http://purl.org/dc/elements/1.1/" xmlns:inkscape="http://www.inkscape.org/namespaces/inkscape" xmlns:rdf="http://www.w3.org/1999/02/22-rdf-syntax-ns#" xmlns:sodipodi="http://sodipodi.sourceforge.net/DTD/sodipodi-0.dtd" xmlns:svg="http://www.w3.org/2000/svg"><defs id="defs4"/><g id="layer1" transform="translate(0,-952.36218)"><g id="g3793" transform="translate(0,-12.499969)"><g id="g3770" transform="matrix(2.4999965,0,0,2.4999965,-89.999825,-1506.0398)"><path d="m 52.419634,1017.0675 c -0.774791,0.1925 -1.58528,0.2947 -2.419634,0.2947 -5.522847,0 -10,-4.4772 -10,-10 0,-5.5229 4.477153,-10.00002 10,-10.00002 5.522847,0 10,4.47712 10,10.00002 0,2.9531 -1.280079,5.6072 -3.315633,7.4378" id="path2987" style="fill:none;stroke:#000000;stroke-width:1.60000229;stroke-linecap:round;stroke-linejoin:miter;stroke-miterlimit:4;stroke-opacity:1;stroke-dasharray:none;stroke-dashoffset:0"/></g><g id="g3779" transform="matrix(2.4999965,0,0,2.4999965,-59.999825,-1501.0398)"><path d="M 47.393208,997.70534 C 48.2243,997.48154 49.09821,997.36218 50,997.36218 c 5.522847,0 10,4.47712 10,10.00002 0,5.5228 -4.477153,10 -10,10 -5.522847,0 -10,-4.4772 -10,-10 0,-3.0384 1.355097,-5.7604 3.493902,-7.5944" id="path3781" style="fill:none;stroke:#000000;stroke-width:1.60000229;stroke-linecap:round;stroke-linejoin:round;stroke-miterlimit:4;stroke-opacity:1;stroke-dasharray:none;stroke-dashoffset:0"/></g></g></g></svg>